<svg width="100" height="100" viewBox="0 0 100 100" fill="none" xmlns="http://www.w3.org/2000/svg">
<rect width="100" height="100" rx="3" fill="#4F6AF9"/>
<path d="M40.1642 45C40.1642 46.2 39.8576 47.1867 39.2442 47.96C38.6309 48.7067 37.9109 49.1733 37.0842 49.36C37.9109 49.5467 38.6309 50.04 39.2442 50.84C39.8576 51.6133 40.1642 52.5867 40.1642 53.76V60.76C40.1642 61.8533 40.4176 62.6933 40.9242 63.28C41.4309 63.8667 42.0842 64.16 42.8842 64.16H44.7642V67.28H42.3642C40.3376 67.28 38.7909 66.7733 37.7242 65.76C36.6842 64.7733 36.1642 63.32 36.1642 61.4V54.6C36.1642 53.3467 35.9642 52.44 35.5642 51.88C35.1642 51.32 34.4576 50.92 33.4442 50.68L32.2042 50.32V48.48L33.4442 48.12C34.4576 47.88 35.1642 47.48 35.5642 46.92C35.9642 46.36 36.1642 45.4533 36.1642 44.2V37.4C36.1642 35.5067 36.7109 34.0533 37.8042 33.04C38.9242 32.0267 40.4442 31.52 42.3642 31.52H44.7642V34.64H42.8842C42.0842 34.64 41.4309 34.9333 40.9242 35.52C40.4176 36.1067 40.1642 36.9467 40.1642 38.04V45ZM68.832 48.48V50.32L67.552 50.68C66.512 50.92 65.792 51.32 65.392 51.88C65.0187 52.44 64.832 53.3467 64.832 54.6V61.4C64.832 63.32 64.2987 64.7733 63.232 65.76C62.1654 66.7733 60.632 67.28 58.632 67.28H56.232V64.16H58.152C58.952 64.16 59.592 63.8667 60.072 63.28C60.5787 62.6933 60.832 61.8533 60.832 60.76V53.76C60.832 52.5867 61.1387 51.6133 61.752 50.84C62.3654 50.04 63.0854 49.5467 63.912 49.36C63.0854 49.1733 62.3654 48.7067 61.752 47.96C61.1387 47.1867 60.832 46.2 60.832 45V38.04C60.832 36.9467 60.5787 36.1067 60.072 35.52C59.592 34.9333 58.952 34.64 58.152 34.64H56.232V31.52H58.632C60.552 31.52 62.0587 32.0267 63.152 33.04C64.272 34.0533 64.832 35.5067 64.832 37.4V44.2C64.832 45.4533 65.0187 46.36 65.392 46.92C65.792 47.48 66.512 47.88 67.552 48.12L68.832 48.48Z" fill="white"/>
</svg>
